<?xml version="1.0" encoding="utf-8"?>
<!-- Generator: Adobe Illustrator 26.0.2, SVG Export Plug-In . SVG Version: 6.00 Build 0)  -->
<svg version="1.1" id="Layer_1" xmlns="http://www.w3.org/2000/svg" xmlns:xlink="http://www.w3.org/1999/xlink" x="0px" y="0px"
	 viewBox="0 0 1812.6 1552.9" style="enable-background:new 0 0 1812.6 1552.9;" xml:space="preserve">
<style type="text/css">
	.st0{fill:#050009;}
	.st1{fill:url(#SVGID_1_);}
	.st2{fill:url(#SVGID_00000170996222523466507870000010531100591393244814_);}
	.st3{fill:url(#SVGID_00000127748405799872624050000003731472881850625713_);}
	.st4{fill:url(#SVGID_00000089563518370157506990000005250857259959920315_);}
	.st5{fill:url(#SVGID_00000066491402675877497820000000099550733739229851_);}
	.st6{fill:url(#SVGID_00000041285744463743760890000011867872252871245450_);}
	.st7{fill:url(#SVGID_00000080173497059035974270000007549207176409307794_);}
	.st8{fill:url(#SVGID_00000160876705702915212080000007475145148909099954_);}
	.st9{fill:url(#SVGID_00000075850562247875281250000005463342432580819091_);}
	.st10{fill:url(#SVGID_00000124135694234885988790000007458163600804717500_);}
	.st11{fill:url(#SVGID_00000124129176500797384610000010452324532769641362_);}
	.st12{fill:url(#SVGID_00000073720894715378439060000014846318810488037042_);}
	.st13{fill:url(#SVGID_00000072960370627085597870000015109965947377527195_);}
	.st14{fill:url(#SVGID_00000047745947338955984400000010398247377529573050_);}
	.st15{fill:url(#SVGID_00000155824606047866939690000012387151371299963560_);}
	.st16{opacity:0.85;}
	.st17{filter:url(#Adobe_OpacityMaskFilter);}
	.st18{mask:url(#SVGID_00000017518997463124676080000003932873565774189225_);}
	.st19{fill:url(#SVGID_00000123418203756611674060000009432331267026043783_);}
	.st20{fill:url(#SVGID_00000106146984339378878570000001711370235277507215_);}
	.st21{fill:url(#SVGID_00000117645033593186505860000006756337194998867346_);}
	.st22{fill:#00E3E0;}
	.st23{fill:url(#SVGID_00000130631754888079185260000001404106681075079344_);}
	.st24{fill:url(#SVGID_00000138548346920573947760000007057119370180602528_);}
</style>
<g>
	<path class="st0" d="M521.2,893.3h1.7c6.4,0,11.5-5.2,11.5-11.5V710.3c0-6.4-5.2-11.5-11.5-11.5h-1.7c-6.4,0-11.5,5.2-11.5,11.5
		v171.5C509.7,888.2,514.9,893.3,521.2,893.3z"/>
	<path class="st0" d="M1291.4,893.3h-1.7c-6.4,0-11.5-5.2-11.5-11.5V710.3c0-6.4,5.2-11.5,11.5-11.5h1.7c6.4,0,11.5,5.2,11.5,11.5
		v171.5C1302.9,888.2,1297.7,893.3,1291.4,893.3z"/>
	<path class="st0" d="M624.2,1061.8c0,0,133.2,244.2,284.5,244.2c127.8,0,280.7-244.2,280.7-244.2H624.2z"/>
	<linearGradient id="SVGID_1_" gradientUnits="userSpaceOnUse" x1="1156.2161" y1="1202.7693" x2="1281.1572" y2="874.5341">
		<stop  offset="0.1649" style="stop-color:#593A84"/>
		<stop  offset="0.3115" style="stop-color:#5C418B"/>
		<stop  offset="0.5269" style="stop-color:#63549F"/>
		<stop  offset="0.6473" style="stop-color:#6861AD"/>
		<stop  offset="0.7858" style="stop-color:#607AC2"/>
		<stop  offset="0.9448" style="stop-color:#5892D6"/>
	</linearGradient>
	<path class="st1" d="M1275.4,896.8L1275.4,896.8c-22.7,138.7-118.8,272.1-118.8,272.1h-0.6c33.2-62.7,95.6-180.2,108-278.6
		c7-9.7,10.5-15.6,10.5-15.6L1275.4,896.8z"/>
	
		<linearGradient id="SVGID_00000137831320865695969550000009840537935960156321_" gradientUnits="userSpaceOnUse" x1="676.5887" y1="1180.9321" x2="556.616" y2="853.4771">
		<stop  offset="5.519499e-02" style="stop-color:#593A84"/>
		<stop  offset="0.1968" style="stop-color:#5C418B"/>
		<stop  offset="0.405" style="stop-color:#63549F"/>
		<stop  offset="0.5213" style="stop-color:#6861AD"/>
		<stop  offset="0.7185" style="stop-color:#607AC2"/>
		<stop  offset="0.9448" style="stop-color:#5892D6"/>
	</linearGradient>
	<path style="fill:url(#SVGID_00000137831320865695969550000009840537935960156321_);" d="M715.9,1169h-73.8
		c0,0-84.4-154-106.7-280.6v-24.7c0,0,3.3,4.7,9.1,12.4v0c18.4,94.1,48.8,188.3,98.9,278.1h62.3
		C709.1,1159.2,712.5,1164.1,715.9,1169z"/>
	
		<linearGradient id="SVGID_00000127753682790334830940000002835193619714762652_" gradientUnits="userSpaceOnUse" x1="614.7139" y1="1036.1522" x2="1241.6438" y2="1036.1522">
		<stop  offset="3.644919e-02" style="stop-color:#214B61"/>
		<stop  offset="8.022745e-02" style="stop-color:#1D3E53"/>
		<stop  offset="0.1861" style="stop-color:#162537"/>
		<stop  offset="0.2919" style="stop-color:#101322"/>
		<stop  offset="0.397" style="stop-color:#0D0816"/>
		<stop  offset="0.5003" style="stop-color:#0C0412"/>
		<stop  offset="0.9079" style="stop-color:#040005"/>
	</linearGradient>
	<path style="fill:url(#SVGID_00000127753682790334830940000002835193619714762652_);" d="M1241.6,918.2
		c-22.4,79.5-59.7,175.5-95.4,236h-379c-23.7-27.2-48.4-67.6-54.2-99.8l-91.3-75.8c-2.5-7.2-4.8-14.4-7.1-21.4
		c2,1.9,4.1,3.9,6.1,5.7c70.4,63.9,171.6,99.1,287.8,99.1c84.1,0,172.8-28.1,229.1-59.3C1184.2,976.8,1218.8,944.1,1241.6,918.2z"/>
	
		<linearGradient id="SVGID_00000127738054573418527840000000617690735058647960_" gradientUnits="userSpaceOnUse" x1="707.1472" y1="1199.7524" x2="548.8823" y2="907.7537">
		<stop  offset="0.2166" style="stop-color:#27163E"/>
		<stop  offset="0.574" style="stop-color:#1E1B3D"/>
		<stop  offset="0.9366" style="stop-color:#10243C"/>
	</linearGradient>
	<path style="fill:url(#SVGID_00000127738054573418527840000000617690735058647960_);" d="M705.7,1154.1h-62.3
		c-50.1-89.8-80.5-184-98.9-278.1c13.8,18.4,41.4,53.6,70.2,81v0c2.2,7.1,4.6,14.2,7.1,21.4C642.4,1038.4,671.3,1102.1,705.7,1154.1
		z"/>
	<g>
		
			<linearGradient id="SVGID_00000124145717430821362270000013152974774706821300_" gradientUnits="userSpaceOnUse" x1="552.1884" y1="867.1114" x2="1263.7587" y2="867.1114">
			<stop  offset="9.190968e-02" style="stop-color:#05273B"/>
			<stop  offset="0.4957" style="stop-color:#1A284E"/>
			<stop  offset="0.8528" style="stop-color:#05273B"/>
		</linearGradient>
		<path style="fill:url(#SVGID_00000124145717430821362270000013152974774706821300_);" d="M1257.8,874.6
			c-6.1,10.8-41.7,64.9-115,111.1c-5.3,3.4-10.9,6.6-16.8,9.8c-58.6,31.8-141.2,54.1-217.4,54.1c-134.5,0-223.4-44.1-283.5-100
			c-42.4-39.4-65-76.8-65-76.8c-9.7-16.6-12.2-67.5,2.4-98.4c13.4-28.4,80.8-132.3,325.7-70.1c0.1,0,0.1,0,0.2,0.1
			c3.2,0.9,6.1,1.7,8.7,2.2c3.7,0.8,6.6,1.3,8.9,1.3c4.1,0,7.2-1.1,13-3.2c59.7-15.5,109.2-20.8,150.1-19.5
			c142,4.5,181,88.6,188.8,102.9C1267.2,805.3,1264.1,863.5,1257.8,874.6z"/>
	</g>
	
		<linearGradient id="SVGID_00000047768756054813005180000001962450791379335054_" gradientUnits="userSpaceOnUse" x1="767.2638" y1="1029.6622" x2="1263.9838" y2="1029.6622">
		<stop  offset="0" style="stop-color:#593A84"/>
		<stop  offset="0.4323" style="stop-color:#392148"/>
		<stop  offset="0.7643" style="stop-color:#231121"/>
		<stop  offset="0.9369" style="stop-color:#1B0B12"/>
	</linearGradient>
	<path style="fill:url(#SVGID_00000047768756054813005180000001962450791379335054_);" d="M1264,890.4
		c-12.3,98.4-74.8,215.9-108,278.6H781.4c-4.6-4.3-9.3-9.3-14.2-14.8h379c35.7-60.4,73-156.5,95.4-236c6.8-7.7,12.5-14.8,17.2-20.9
		l0,0l0,0C1260.7,894.8,1262.4,892.5,1264,890.4z"/>
	
		<linearGradient id="SVGID_00000071529013381176231340000011531538800978096003_" gradientUnits="userSpaceOnUse" x1="748.3607" y1="1173.2781" x2="648.1254" y2="985.5133">
		<stop  offset="6.385101e-02" style="stop-color:#A926FB"/>
		<stop  offset="0.3556" style="stop-color:#9036E7"/>
		<stop  offset="0.971" style="stop-color:#4F60B6"/>
	</linearGradient>
	<path style="fill:url(#SVGID_00000071529013381176231340000011531538800978096003_);" d="M781.4,1169h-65.5
		c-3.4-4.8-6.8-9.8-10.2-14.8c-34.5-52.1-63.3-115.8-84-175.6l91.3,75.8c5.8,32.2,30.5,72.6,54.2,99.8
		C772.1,1159.7,776.9,1164.7,781.4,1169z"/>
	<g>
		
			<linearGradient id="SVGID_00000032613753349326143210000001528788040515565976_" gradientUnits="userSpaceOnUse" x1="718.4958" y1="246.8214" x2="718.4958" y2="779.6013">
			<stop  offset="6.703911e-02" style="stop-color:#06F2DC"/>
			<stop  offset="0.2432" style="stop-color:#08E9DA"/>
			<stop  offset="0.5358" style="stop-color:#0CCFD5"/>
			<stop  offset="0.8911" style="stop-color:#12A8CD"/>
		</linearGradient>
		<path style="fill:url(#SVGID_00000032613753349326143210000001528788040515565976_);" d="M904.1,310.9
			c-18.6-0.6-125-1.2-199.5,61.3C622.7,440.9,594.1,507,588.2,615.7c0,0.4-0.1,0.8-0.1,1.3c-1.5,23.1-9.5,32.4-21.8,30.6
			c-14.1-2-11.2-36.4-6.2-80.6c0,0-13.8,23.3-14.1,81.4c0,1.5,0,3,0,4.6c-0.4,48-2.8,110.7-2.8,110.7l-10.4,15.9
			c0.1-82.8,0.6-190.6,0.6-202.3c0-59.6,37.5-144.8,92.1-208.8c49.5-58,149.9-120,278.1-121.6l0,5.2L904.1,310.9z"/>
		
			<linearGradient id="SVGID_00000057120758167629466360000015841670115961708458_" gradientUnits="userSpaceOnUse" x1="1096.8359" y1="283.609" x2="1096.8359" y2="763.5938">
			<stop  offset="6.703911e-02" style="stop-color:#06F2DC"/>
			<stop  offset="0.2432" style="stop-color:#08E9DA"/>
			<stop  offset="0.5358" style="stop-color:#0CCFD5"/>
			<stop  offset="0.8911" style="stop-color:#12A8CD"/>
		</linearGradient>
		<path style="fill:url(#SVGID_00000057120758167629466360000015841670115961708458_);" d="M1279,779.7l-10.4-15.9
			c0-3.5-1.6-97.6-1.4-120.7c0.2-26.2-2.8-74.4-2.8-74.4c-2.2,49.4-4.2,74.3-21.3,74.4c-12.2,0-12.2-11.8-12.5-23.1
			c-0.7-27.3-6.4-116.7-54-185.3c-60-86.5-112.4-106.4-159.7-118.4c-33.7-8.5-95.1-4.9-95.1-4.9l-7-64.5
			c99.9,1.7,188.2,44.1,245,92.9c75.6,64.8,118.6,179.3,118.6,228.2C1278.3,587.6,1279,696.2,1279,779.7z"/>
	</g>
	<g>
		
			<linearGradient id="SVGID_00000129898908874621512720000011341385305034412928_" gradientUnits="userSpaceOnUse" x1="737.7414" y1="957.3746" x2="737.7414" y2="738.3588">
			<stop  offset="0.1214" style="stop-color:#06F2DC"/>
			<stop  offset="0.4366" style="stop-color:#0AD8D7"/>
			<stop  offset="0.9314" style="stop-color:#12A8CD"/>
		</linearGradient>
		
			<ellipse style="fill:url(#SVGID_00000129898908874621512720000011341385305034412928_);" cx="737.7" cy="842.7" rx="81.2" ry="94"/>
		
			<linearGradient id="SVGID_00000096781991095869171610000003921333247141348283_" gradientUnits="userSpaceOnUse" x1="737.7414" y1="748.6688" x2="737.7414" y2="925.1494">
			<stop  offset="6.132985e-02" style="stop-color:#08132E"/>
			<stop  offset="0.9733" style="stop-color:#10132F"/>
		</linearGradient>
		
			<ellipse style="fill:url(#SVGID_00000096781991095869171610000003921333247141348283_);" cx="737.7" cy="840.6" rx="81.2" ry="85.8"/>
		
			<radialGradient id="SVGID_00000103267403392411774550000018347866244504702346_" cx="738.5061" cy="825.7275" r="86.4735" fx="704.8741" fy="825.6964" gradientTransform="matrix(-2.623768e-02 0.9997 -0.8368 -2.196255e-02 1448.8295 105.6108)" gradientUnits="userSpaceOnUse">
			<stop  offset="6.893253e-02" style="stop-color:#17D9FD"/>
			<stop  offset="0.2328" style="stop-color:#18D6FD"/>
			<stop  offset="0.3561" style="stop-color:#1BCCFB"/>
			<stop  offset="0.4662" style="stop-color:#20BCF9"/>
			<stop  offset="0.5686" style="stop-color:#27A5F6"/>
			<stop  offset="0.6656" style="stop-color:#3088F2"/>
			<stop  offset="0.7586" style="stop-color:#3C63ED"/>
			<stop  offset="0.8469" style="stop-color:#4939E7"/>
			<stop  offset="0.8825" style="stop-color:#4F26E4"/>
		</radialGradient>
		
			<ellipse style="fill:url(#SVGID_00000103267403392411774550000018347866244504702346_);" cx="737.7" cy="840.6" rx="59.6" ry="66.2"/>
	</g>
	<g>
		
			<linearGradient id="SVGID_00000178912144384735142010000008048005821171529390_" gradientUnits="userSpaceOnUse" x1="1076.7983" y1="957.3746" x2="1076.7983" y2="738.3588">
			<stop  offset="0.1214" style="stop-color:#06F2DC"/>
			<stop  offset="0.4366" style="stop-color:#0AD8D7"/>
			<stop  offset="0.9314" style="stop-color:#12A8CD"/>
		</linearGradient>
		
			<ellipse style="fill:url(#SVGID_00000178912144384735142010000008048005821171529390_);" cx="1076.8" cy="842.7" rx="81.2" ry="94"/>
		
			<linearGradient id="SVGID_00000128471242974658361280000015063511930259556250_" gradientUnits="userSpaceOnUse" x1="1076.7983" y1="748.6688" x2="1076.7983" y2="925.1494">
			<stop  offset="6.132985e-02" style="stop-color:#08132E"/>
			<stop  offset="0.9733" style="stop-color:#10132F"/>
		</linearGradient>
		
			<ellipse style="fill:url(#SVGID_00000128471242974658361280000015063511930259556250_);" cx="1076.8" cy="840.6" rx="81.2" ry="85.8"/>
		
			<radialGradient id="SVGID_00000003091800263215387870000016664582993889293731_" cx="1077.5631" cy="825.7275" r="86.4735" fx="1043.9312" fy="825.6964" gradientTransform="matrix(-2.623768e-02 0.9997 -0.8368 -2.196255e-02 1796.7825 -233.3295)" gradientUnits="userSpaceOnUse">
			<stop  offset="6.893253e-02" style="stop-color:#17D9FD"/>
			<stop  offset="0.2328" style="stop-color:#18D6FD"/>
			<stop  offset="0.3561" style="stop-color:#1BCCFB"/>
			<stop  offset="0.4662" style="stop-color:#20BCF9"/>
			<stop  offset="0.5686" style="stop-color:#27A5F6"/>
			<stop  offset="0.6656" style="stop-color:#3088F2"/>
			<stop  offset="0.7586" style="stop-color:#3C63ED"/>
			<stop  offset="0.8469" style="stop-color:#4939E7"/>
			<stop  offset="0.8825" style="stop-color:#4F26E4"/>
		</radialGradient>
		
			<ellipse style="fill:url(#SVGID_00000003091800263215387870000016664582993889293731_);" cx="1076.8" cy="840.6" rx="59.6" ry="66.2"/>
	</g>
	<g class="st16">
		<defs>
			<filter id="Adobe_OpacityMaskFilter" filterUnits="userSpaceOnUse" x="536.9" y="661.4" width="737.6" height="277.6">
				<feFlood  style="flood-color:white;flood-opacity:1" result="back"/>
				<feBlend  in="SourceGraphic" in2="back" mode="normal"/>
			</filter>
		</defs>
		
			<mask maskUnits="userSpaceOnUse" x="536.9" y="661.4" width="737.6" height="277.6" id="SVGID_00000134933729590637841190000013654057530263731096_">
			<g class="st17">
				
					<image style="overflow:visible;" width="3091" height="1175" xlink:href="249EBB83.jpg"  transform="matrix(0.24 0 0 0.24 534.8776 659.1514)">
				</image>
			</g>
		</mask>
		<g style="mask:url(#SVGID_00000134933729590637841190000013654057530263731096_);">
			
				<linearGradient id="SVGID_00000057115692267250523780000008411043573597838218_" gradientUnits="userSpaceOnUse" x1="536.9158" y1="800.1418" x2="1274.506" y2="800.1418">
				<stop  offset="4.648663e-02" style="stop-color:#020715"/>
				<stop  offset="0.5154" style="stop-color:#03070F"/>
				<stop  offset="0.9777" style="stop-color:#06040B"/>
			</linearGradient>
			<path style="fill:url(#SVGID_00000057115692267250523780000008411043573597838218_);" d="M1274.5,795.2v79.6
				c0,0-3.5,5.9-10.5,15.6c-1.5,2.1-3.3,4.4-5.1,6.9l0,0l0,0c-4.7,6.1-10.4,13.2-17.2,20.9c-3.6,4.1-7.5,8.4-11.7,12.8
				c-1.6,1.7-3.3,3.4-4.9,5.1c-1,1-1.9,2-2.9,2.9c1-6.3,2-13.4,2.7-21.2c4-46.6-2.9-115.6-66.7-155.9c-24-15.2-46.6-21.9-67.7-22.9
				c-84.9-4.2-106.2,78.6-177,77.6c-66.4-0.9-79.5-74.4-170.8-80.8c-40.4-2.8-69.7,9.3-75.2,11.7C583.9,783.2,565.2,886,562.9,899.7
				c-4.4-5.4-8.3-10.4-11.8-15c-0.3-0.4-0.5-0.7-0.8-1.1c-0.8-1.1-1.6-2.1-2.4-3.1c-0.2-0.3-0.4-0.6-0.7-0.9c-1-1.3-1.9-2.5-2.7-3.6
				v0c-0.8-1-1.5-2-2.1-2.8c-0.3-0.4-0.6-0.8-0.9-1.2c-2-2.7-3.6-4.9-4.6-6.3v-70.5c1.4-5.5,3.1-10.7,4.9-15.8c0-0.1,0-0.1,0.1-0.2
				c3.4-4.8,7.4-10.6,10.4-14.7c18-51.9,67.9-82,100.5-92.2c0,0,0.1,0,0.2,0c1.1-0.3,2.1-0.6,3.2-0.9c0.1,0,0.1,0,0.2,0
				c0.5-0.1,1.1-0.3,1.6-0.4c1.1-0.3,2.1-0.5,3.1-0.8c0.5-0.1,1-0.2,1.5-0.3c49.7-10.6,111.1-4.1,139.2,1.5
				c59.6,11.8,91.9,24.3,104.2,24.3c11.2,0,15.9-7.3,87.6-23.8c42.5-9.8,101.7-17.2,155.9-0.5
				C1217.6,692.2,1256.4,744.6,1274.5,795.2z"/>
		</g>
	</g>
	
		<linearGradient id="SVGID_00000073693864907979192440000016255719050345547443_" gradientUnits="userSpaceOnUse" x1="506.4118" y1="571.8314" x2="1335.194" y2="571.8314">
		<stop  offset="3.321670e-02" style="stop-color:#09CAE0"/>
		<stop  offset="0.1055" style="stop-color:#0EA2B5"/>
		<stop  offset="0.1782" style="stop-color:#128192"/>
		<stop  offset="0.2521" style="stop-color:#166877"/>
		<stop  offset="0.3265" style="stop-color:#185664"/>
		<stop  offset="0.4018" style="stop-color:#1A4B58"/>
		<stop  offset="0.4795" style="stop-color:#1A4754"/>
		<stop  offset="0.5438" style="stop-color:#194C59"/>
		<stop  offset="0.6229" style="stop-color:#185A68"/>
		<stop  offset="0.7097" style="stop-color:#157181"/>
		<stop  offset="0.802" style="stop-color:#1191A4"/>
		<stop  offset="0.8979" style="stop-color:#0CBBD0"/>
		<stop  offset="0.9301" style="stop-color:#0ACAE1"/>
	</linearGradient>
	<path style="fill:url(#SVGID_00000073693864907979192440000016255719050345547443_);" d="M1278,878.5c-0.7,6.1-1.6,12.2-2.6,18.3
		l-0.9-22v-79.6c-18.1-50.7-56.9-103-125.1-124c-54.1-16.7-113.4-9.3-155.9,0.5c-71.7,16.5-76.4,23.8-87.6,23.8
		c-12.4,0-44.7-12.5-104.2-24.3c-28.2-5.6-89.5-12.1-139.2-1.5c-0.5,0.1-1,0.2-1.5,0.3c-1,0.2-2,0.5-3.1,0.8
		c-0.6,0.1-1.2,0.3-1.8,0.5c-0.6,0.2-1.2,0.3-1.8,0.5c-31.9,9.4-88.2,39.8-112.5,107.6c-1.8,5-3.4,10.3-4.9,15.8v101.1l-3.5-20.3
		c-0.5-3.5-0.7-47-0.6-96.3l0-0.1l10.4-15.9c0,0,2.4-62.7,2.8-110.7c0-1.6,0-3.1,0-4.6c0.3-58.1,14.1-81.4,14.1-81.4
		c-5,44.2-7.9,78.6,6.2,80.6c12.3,1.8,20.2-7.5,21.8-30.6c0-0.4,0.1-0.8,0.1-1.3c6-108.7,34.6-174.8,116.5-243.5
		c74.5-62.5,180.9-61.9,199.5-61.3l-0.4-58.8c7-3.4,11-5.2,11-5.2l7,64.5c0,0,61.5-3.6,95.1,4.9c47.3,12,99.7,31.9,159.7,118.4
		c47.6,68.6,53.3,158,54,185.3c0.3,11.3,0.3,23.2,12.5,23.1c17.1-0.1,19.1-25,21.3-74.4c0,0,3,48.2,2.8,74.4
		c-0.2,23,1.4,117.1,1.4,120.7l10.4,15.9C1279,830.2,1278.8,871.6,1278,878.5z"/>
	
		<radialGradient id="SVGID_00000040557876919124673780000000867481880668122031_" cx="901.2521" cy="728.3149" r="342.0407" gradientTransform="matrix(-1.428426e-02 0.9999 -2.0043 -2.863341e-02 2373.9155 -151.9911)" gradientUnits="userSpaceOnUse">
		<stop  offset="0" style="stop-color:#001015"/>
		<stop  offset="0.1827" style="stop-color:#041923"/>
		<stop  offset="0.4402" style="stop-color:#092131"/>
		<stop  offset="0.665" style="stop-color:#0A2436"/>
		<stop  offset="0.6921" style="stop-color:#094054"/>
		<stop  offset="0.7579" style="stop-color:#067E98"/>
		<stop  offset="0.8132" style="stop-color:#04ABCA"/>
		<stop  offset="0.8549" style="stop-color:#02C7E9"/>
		<stop  offset="0.8782" style="stop-color:#02D2F4"/>
	</radialGradient>
	<path style="fill:url(#SVGID_00000040557876919124673780000000867481880668122031_);" d="M1274.5,795.2v79.6c0,0-3.5,5.9-10.5,15.6
		c-1.5,2.1-3.3,4.4-5.1,6.9l0,0l0,0c-4.7,6.1-10.4,13.2-17.2,20.9c-3.6,4.1-7.5,8.4-11.7,12.8c-1.6,1.7-3.2,3.4-4.9,5.1
		c-1,1-1.9,2-2.9,2.9c-21.5,21.3-49.6,44.4-84.3,63.6c-56.2,31.2-144.9,59.3-229.1,59.3c-116.1,0-217.4-35.2-287.8-99.1
		c-2.1-1.9-4.1-3.8-6.1-5.7v0c-19-18.1-37.5-39.5-51.8-57.3c-4.4-5.4-8.3-10.4-11.8-15c-0.3-0.4-0.5-0.7-0.8-1.1
		c-0.8-1.1-1.6-2.1-2.4-3.1c-0.2-0.3-0.5-0.6-0.7-0.9c-1-1.3-1.9-2.5-2.7-3.6v0c-0.8-1-1.5-2-2.1-2.8c-0.3-0.4-0.6-0.8-0.9-1.2
		c-3.4-4.6-4.6-6.2-4.6-6.2v-70.6c1.9-2.7,18.8-35.5,19.4-36.2c5.6-6.7,31.9-59.3,105.5-79.3c49.2-13.4,111.9-3,140.2,2.6
		c41,8.1,68.7,17.1,86.2,21.9C643.3,642,576,745.9,562.5,774.3c-14.6,30.8-12.1,81.8-2.4,98.4c0,0,3,5,8.9,13.3
		c10.2,14.3,29.2,38.5,56.1,63.5c60.1,55.9,149.1,100,283.5,100c83.8,0,175.4-26.9,234.2-63.9c36.2-22.7,63.1-47.4,81.9-67.9
		c19.3-21.1,30-37.7,33.1-43.2c6.3-11.1,9.4-69.3,0-86.6c-10-18.4-71.8-152.7-338.9-83.3c10.3-3.8,28.8-11.1,74.8-21.7
		c42.6-9.8,101.9-19.5,156.1-2.3C1217.3,702.1,1244.2,750.5,1274.5,795.2z"/>
	<path class="st22" d="M1274.5,795.2c-30.4-44.7-57.2-93.2-124.6-114.5c-54.2-17.2-113.4-7.5-156.1,2.3
		c-46.1,10.6-64.5,17.8-74.8,21.7c-5.8,2.2-9,3.2-13,3.2c-2.3,0-5.2-0.5-8.9-1.3c-2.9-0.8-5.8-1.5-8.7-2.2c-0.1,0-0.1,0-0.2-0.1
		c-17.4-4.9-45.2-13.9-86.2-21.9c-28.3-5.6-91-16-140.2-2.6c-73.7,20-100,72.6-105.5,79.3c-0.6,0.7-17.4,33.5-19.4,36.2
		c1.4-5.5,3.1-10.7,4.9-15.8c0-0.1,0-0.1,0.1-0.2c24-66.7,78.8-97,110.9-107c0,0,0.1,0,0.2,0c0.4-0.1,0.9-0.3,1.3-0.4
		c0.6-0.2,1.2-0.4,1.8-0.5c0.1,0,0.1,0,0.2,0c0.5-0.1,1.1-0.3,1.6-0.4c1.1-0.3,2.1-0.5,3.1-0.8c0.5-0.1,1-0.2,1.5-0.3
		c49.7-10.6,111.1-4.1,139.2,1.5c59.6,11.8,91.9,24.3,104.2,24.3c11.2,0,15.9-7.3,87.6-23.8c42.5-9.8,101.7-17.2,155.9-0.5
		C1217.6,692.2,1256.4,744.6,1274.5,795.2z"/>
	
		<linearGradient id="SVGID_00000081643763288452077830000016164348424156475791_" gradientUnits="userSpaceOnUse" x1="760.5168" y1="353.9417" x2="614.7521" y2="474.2946">
		<stop  offset="0.1775" style="stop-color:#06F2DC"/>
		<stop  offset="0.3579" style="stop-color:#08E8DA"/>
		<stop  offset="0.6664" style="stop-color:#0CCDD4"/>
		<stop  offset="1" style="stop-color:#12A8CD"/>
	</linearGradient>
	<path style="fill:url(#SVGID_00000081643763288452077830000016164348424156475791_);" d="M773.8,347.8c8.6,11-6.7,16-23.9,26.6
		c-65.4,40.3-105.8,80-108.1,78.2c-2-1.5,21.7-41.3,81.9-82.8C741.4,357.6,768.2,340.7,773.8,347.8z"/>
	
		<linearGradient id="SVGID_00000044161755830444626610000018145132563966512029_" gradientUnits="userSpaceOnUse" x1="909.1638" y1="255.0217" x2="909.1638" y2="531.2527">
		<stop  offset="3.322028e-02" style="stop-color:#114D43"/>
		<stop  offset="0.2782" style="stop-color:#0E393D"/>
		<stop  offset="0.5439" style="stop-color:#0B2938"/>
		<stop  offset="0.7585" style="stop-color:#0A2436"/>
	</linearGradient>
	<path style="fill:url(#SVGID_00000044161755830444626610000018145132563966512029_);" d="M914.7,246.8l-8.7,307.7l-1.8-243.6
		l-0.5-64.1c1.6,0,3.3,0,5,0C910.6,246.8,912.7,246.8,914.7,246.8z"/>
</g>
</svg>
